    <svg width="200" height="250" viewBox="0 0 200 250" xmlns="http://www.w3.org/2000/svg">
        <!-- Cuerpo -->
        <ellipse cx="100" cy="150" rx="50" ry="70" fill="#555" />
        
        <!-- Cabeza -->
        <circle cx="100" cy="80" r="40" fill="#555" />
        
        <!-- Orejas -->
        <polygon points="70,40 90,10 100,40" fill="#555" />
        <polygon points="130,40 110,10 100,40" fill="#555" />
        
        <!-- Ojos -->
        <circle cx="85" cy="75" r="7" fill="white" />
        <circle cx="115" cy="75" r="7" fill="white" />
        <circle cx="85" cy="75" r="3" fill="black" />
        <circle cx="115" cy="75" r="3" fill="black" />
        
        <!-- Nariz -->
        <polygon points="95,90 105,90 100,100" fill="pink" />
        
        <!-- Bigotes -->
        <line x1="60" y1="100" x2="90" y2="100" stroke="#000" stroke-width="2" />
        <line x1="60" y1="105" x2="90" y2="105" stroke="#000" stroke-width="2" />
        <line x1="110" y1="100" x2="140" y2="100" stroke="#000" stroke-width="2" />
        <line x1="110" y1="105" x2="140" y2="105" stroke="#000" stroke-width="2" />
        
        <!-- Cola -->
        <path d="M 150 180 Q 180 140 160 100" stroke="#555" stroke-width="10" fill="none" />
    </svg>